<svg width="4000" height="4000" viewBox="0 0 4000 4000" fill="none" xmlns="http://www.w3.org/2000/svg">
<mask id="mask0_104_4" style="mask-type:alpha" maskUnits="userSpaceOnUse" x="0" y="0" width="4000" height="4000">
<path d="M0 620C0 277.583 277.583 0 620 0H3380C3722.42 0 4000 277.583 4000 620V3380C4000 3722.42 3722.42 4000 3380 4000H620C277.583 4000 0 3722.42 0 3380V620Z" fill="#D9D9D9"/>
</mask>
<g mask="url(#mask0_104_4)">
<path d="M4000 2000H2000V0H4000V2000ZM2500 500V1500H3500V500H2500Z" fill="url(#paint0_linear_104_4)"/>
<path d="M2000 4000H0V3250H2000V4000ZM2000 2750H0V2000H2000V2750Z" fill="url(#paint1_linear_104_4)"/>
<path d="M3999.52 3652.35L3641.08 4000H3640.16L2000 2308.93V2002.91L2003 2000H2396.92L3999.52 3652.35Z" fill="url(#paint2_linear_104_4)"/>
</g>
<defs>
<linearGradient id="paint0_linear_104_4" x1="4000" y1="1000" x2="859" y2="1000" gradientUnits="userSpaceOnUse">
<stop stop-color="#11AB9F"/>
<stop offset="1" stop-color="#074540"/>
</linearGradient>
<linearGradient id="paint1_linear_104_4" x1="0" y1="3000" x2="3717" y2="3000" gradientUnits="userSpaceOnUse">
<stop stop-color="#AB5B11"/>
<stop offset="1" stop-color="#452507"/>
</linearGradient>
<linearGradient id="paint2_linear_104_4" x1="3999.52" y1="3000" x2="668" y2="2811" gradientUnits="userSpaceOnUse">
<stop stop-color="#AB1116"/>
<stop offset="1" stop-color="#450709"/>
</linearGradient>
</defs>
</svg>
